<svg width="24" height="24" viewBox="0 0 24 24" fill="none" xmlns="http://www.w3.org/2000/svg">
<path d="M2.5779 0.0335712C2.33415 0.0710707 1.84196 0.249189 1.57009 0.389809C1.19978 0.586677 0.585714 1.20072 0.388839 1.57102C0.309152 1.7257 0.191964 1.99757 0.131027 2.18037L0.0232142 2.50848V6.46928C0.0232142 10.7582 0.0185267 10.641 0.281027 11.2316C0.623214 11.991 1.41071 12.6941 2.14196 12.8862L2.33884 12.9378L2.3529 13.9128C2.36696 14.9955 2.39509 15.094 2.68571 15.2768C2.87321 15.394 3.18259 15.408 3.3654 15.3096C3.43571 15.2721 3.98884 14.7424 4.59353 14.1378L5.69509 13.0316H5.91071H6.13103L6.15446 11.9394C6.17321 10.9972 6.18728 10.8051 6.27634 10.5051C6.73103 8.96294 7.87478 7.81923 9.42165 7.3505C9.76853 7.24738 9.80134 7.24738 13.1154 7.22863L16.4529 7.21457V4.93184C16.4529 2.4288 16.4435 2.32568 16.167 1.74914C15.8763 1.13978 15.3748 0.638238 14.742 0.324186C14.0623 -0.0133018 14.3435 0.000760078 8.2029 0.0101347C5.17478 0.0101347 2.64353 0.0241966 2.5779 0.0335712Z" fill="black"/>
<path d="M9.80602 8.72044C8.74665 8.997 7.91227 9.8454 7.63571 10.9141C7.55133 11.2469 7.54665 11.4625 7.54665 15.0952C7.54665 17.5936 7.5654 19.0185 7.59821 19.2013C7.62165 19.3513 7.74352 19.6794 7.86071 19.9232C8.22633 20.6778 8.88258 21.2403 9.72633 21.5262L10.0545 21.6341L14.1795 21.6481L18.3045 21.6622L19.4529 22.8012C20.6763 24.0199 20.7279 24.0574 21.0888 23.9777C21.2529 23.9449 21.4873 23.7621 21.5763 23.6074C21.6138 23.5418 21.642 23.1762 21.656 22.5293L21.6795 21.5497L21.867 21.4934C22.181 21.3997 22.617 21.1559 22.917 20.9075C23.4466 20.4669 23.8498 19.7404 23.9529 19.0513C23.981 18.8591 23.9998 17.2326 23.9998 15.0483C23.9998 10.9329 24.0045 10.9985 23.6763 10.3376C23.3623 9.70478 22.8607 9.20324 22.2513 8.91262C21.6326 8.61732 21.8998 8.6267 15.7498 8.63138C10.3873 8.63138 10.1341 8.63607 9.80602 8.72044Z" fill="black"/>
</svg>
