<svg width="24" height="16" viewBox="0 0 24 16" fill="none" xmlns="http://www.w3.org/2000/svg">
<path d="M11.9118 5C11.0502 5 10.2239 5.31607 9.61461 5.87868C9.00537 6.44129 8.6631 7.20435 8.6631 8C8.6631 8.79565 9.00537 9.55871 9.61461 10.1213C10.2239 10.6839 11.0502 11 11.9118 11C12.7734 11 13.5997 10.6839 14.2089 10.1213C14.8182 9.55871 15.1604 8.79565 15.1604 8C15.1604 7.20435 14.8182 6.44129 14.2089 5.87868C13.5997 5.31607 12.7734 5 11.9118 5ZM11.9118 13C10.4758 13 9.09858 12.4732 8.08318 11.5355C7.06777 10.5979 6.49733 9.32608 6.49733 8C6.49733 6.67392 7.06777 5.40215 8.08318 4.46447C9.09858 3.52678 10.4758 3 11.9118 3C13.3478 3 14.7249 3.52678 15.7403 4.46447C16.7558 5.40215 17.3262 6.67392 17.3262 8C17.3262 9.32608 16.7558 10.5979 15.7403 11.5355C14.7249 12.4732 13.3478 13 11.9118 13ZM11.9118 0.5C6.49733 0.5 1.8734 3.61 0 8C1.8734 12.39 6.49733 15.5 11.9118 15.5C17.3262 15.5 21.9501 12.39 23.8235 8C21.9501 3.61 17.3262 0.5 11.9118 0.5Z" fill="#2A2A2A"/>
</svg>
