<svg width="32" height="32" viewBox="0 0 32 32" fill="none" xmlns="http://www.w3.org/2000/svg">
<g clip-path="url(#clip0_7636_961)">
<path d="M23.5637 29.6245C24.0397 29.4995 24.2014 29.112 24.2502 27.9586C24.2716 27.5284 24.296 27.2721 24.3418 27.0891C24.4241 26.7504 24.6804 26.2317 24.9428 25.8839C25.309 25.3957 26.029 24.7306 26.5904 24.3583L26.7216 24.2729V20.2393V16.2027L26.3829 16.0593C25.4798 15.6779 24.3052 15.3697 23.0756 15.1927C22.1694 15.0615 21.5836 15.028 20.2075 15.0249C18.9322 15.0219 18.8895 15.0249 18.6576 15.0921C17.7575 15.3514 17.0985 15.9799 16.8391 16.822C16.8025 16.938 16.5981 18.0303 16.3845 19.2477C16.0153 21.3682 16.0001 21.4781 16.0001 21.8717C16.0031 22.2286 16.0153 22.3202 16.0855 22.5582C16.3235 23.3453 16.8757 23.9586 17.6172 24.2546C18.0474 24.4285 18.145 24.4346 19.9787 24.4346H21.6507L21.5439 24.7336C21.2968 25.4262 21.1869 26.1005 21.1869 26.9365C21.1869 27.5834 21.2205 27.8 21.3731 28.1814C21.5073 28.52 21.6538 28.7397 21.9284 29.0113C22.1999 29.2828 22.4531 29.4415 22.8071 29.5635C22.9993 29.6307 23.4173 29.6642 23.5637 29.6245Z" fill="#0F0F0F"/>
<path d="M30.8133 24.8743C31.1459 24.7736 31.4388 24.4746 31.5425 24.1298C31.6035 23.9346 31.6035 23.8552 31.5974 19.9803L31.5883 16.0291L31.4876 15.8247C31.3655 15.5745 31.1245 15.3457 30.8774 15.245C30.7065 15.1748 30.6821 15.1748 29.6508 15.1748C28.6196 15.1748 28.5952 15.1748 28.4243 15.245C28.1772 15.3457 27.9361 15.5745 27.8141 15.8247L27.7134 16.0291L27.7042 19.9803C27.6981 23.8552 27.6981 23.9346 27.7592 24.1298C27.8659 24.4838 28.1558 24.7736 28.5006 24.8774C28.7202 24.9414 30.6028 24.9414 30.8133 24.8743Z" fill="#0F0F0F"/>
<path d="M8.43547 2.37447C7.9595 2.49957 7.79779 2.88706 7.74897 4.04039C7.72762 4.47059 7.70321 4.72689 7.65744 4.90996C7.57506 5.24863 7.31877 5.76732 7.05638 6.11515C6.69024 6.60333 5.97019 7.26847 5.40878 7.64071L5.27759 7.72614V11.7597V15.7964L5.61626 15.9398C6.51938 16.3211 7.69405 16.6293 8.92364 16.8063C9.82982 16.9375 10.4156 16.971 11.7917 16.9741C13.067 16.9771 13.1097 16.9741 13.3416 16.907C14.2417 16.6476 14.9007 16.0191 15.1601 15.177C15.1967 15.061 15.4011 13.9687 15.6147 12.7513C15.9839 10.6308 15.9991 10.521 15.9991 10.1274C15.9961 9.77039 15.9839 9.67886 15.9137 9.44087C15.6757 8.65368 15.1235 8.04041 14.382 7.74445C13.9518 7.57053 13.8542 7.56443 12.0205 7.56443H10.3485L10.4553 7.26542C10.7024 6.57282 10.8123 5.89852 10.8123 5.06251C10.8123 4.41567 10.7787 4.19904 10.6262 3.81765C10.4919 3.47898 10.3455 3.2593 10.0709 2.98775C9.79931 2.7162 9.54607 2.55754 9.19214 2.4355C8.99992 2.36837 8.58192 2.33481 8.43547 2.37447Z" fill="#0F0F0F"/>
<path d="M1.18591 7.12471C0.853342 7.22539 0.560437 7.5244 0.4567 7.86918C0.395678 8.06445 0.395678 8.14378 0.40178 12.0187L0.410934 15.9699L0.51162 16.1743C0.633663 16.4245 0.8747 16.6534 1.12184 16.754C1.2927 16.8242 1.31711 16.8242 2.34838 16.8242C3.37965 16.8242 3.40406 16.8242 3.57492 16.754C3.82206 16.6534 4.06309 16.4245 4.18514 16.1743L4.28582 15.9699L4.29498 12.0187C4.30108 8.14378 4.30108 8.06445 4.24006 7.86918C4.13327 7.51525 3.84341 7.22539 3.49864 7.12165C3.27896 7.05758 1.39644 7.05758 1.18591 7.12471Z" fill="#0F0F0F"/>
</g>
<defs>
<clipPath id="clip0_7636_961">
<rect width="31.2" height="31.2" fill="white" transform="translate(0.399994 0.399902)"/>
</clipPath>
</defs>
</svg>
