<svg width="20" height="20" viewBox="0 0 20 20" fill="none" xmlns="http://www.w3.org/2000/svg">
<path d="M9.08333 7.25016H10.9167V5.41683H9.08333M9.99999 17.3335C5.95749 17.3335 2.66666 14.0427 2.66666 10.0002C2.66666 5.95766 5.95749 2.66683 9.99999 2.66683C14.0425 2.66683 17.3333 5.95766 17.3333 10.0002C17.3333 14.0427 14.0425 17.3335 9.99999 17.3335ZM9.99999 0.833496C8.79621 0.833496 7.60421 1.0706 6.49206 1.53127C5.37991 1.99194 4.36939 2.66715 3.51818 3.51835C1.7991 5.23743 0.833328 7.56901 0.833328 10.0002C0.833328 12.4313 1.7991 14.7629 3.51818 16.482C4.36939 17.3332 5.37991 18.0084 6.49206 18.4691C7.60421 18.9297 8.79621 19.1668 9.99999 19.1668C12.4311 19.1668 14.7627 18.2011 16.4818 16.482C18.2009 14.7629 19.1667 12.4313 19.1667 10.0002C19.1667 8.79638 18.9296 7.60438 18.4689 6.49223C18.0082 5.38008 17.333 4.36955 16.4818 3.51835C15.6306 2.66715 14.6201 1.99194 13.5079 1.53127C12.3958 1.0706 11.2038 0.833496 9.99999 0.833496ZM9.08333 14.5835H10.9167V9.0835H9.08333V14.5835Z" fill="#2A2A2A"/>
</svg>
