<svg width="10" height="20" viewBox="0 0 10 20" fill="none" xmlns="http://www.w3.org/2000/svg">
<path d="M8.75016 5.62309V14.4398C8.75016 16.1814 7.47516 17.7314 5.74183 17.8981C5.27879 17.9444 4.81118 17.893 4.36923 17.7473C3.92727 17.6016 3.52079 17.3648 3.17603 17.0523C2.83127 16.7397 2.55591 16.3583 2.36772 15.9327C2.17953 15.5071 2.08271 15.0468 2.0835 14.5814V4.28142C2.0835 3.18975 2.86683 2.19809 3.95016 2.08975C4.24069 2.05937 4.53436 2.09043 4.81211 2.18091C5.08986 2.27138 5.34547 2.41926 5.56237 2.61493C5.77926 2.81061 5.95258 3.0497 6.07107 3.3167C6.18956 3.5837 6.25058 3.87264 6.25016 4.16475V12.9148C6.25016 13.3731 5.87516 13.7481 5.41683 13.7481C4.9585 13.7481 4.5835 13.3731 4.5835 12.9148V5.62309C4.5835 5.28142 4.30016 4.99809 3.9585 4.99809C3.61683 4.99809 3.3335 5.28142 3.3335 5.62309V12.7981C3.3335 13.8898 4.11683 14.8814 5.20016 14.9898C5.49069 15.0201 5.78436 14.9891 6.06211 14.8986C6.33986 14.8081 6.59547 14.6602 6.81237 14.4646C7.02926 14.2689 7.20258 14.0298 7.32107 13.7628C7.43956 13.4958 7.50058 13.2069 7.50016 12.9148V4.30642C7.50016 2.56475 6.22516 1.01475 4.49183 0.848085C4.02891 0.802477 3.56158 0.854309 3.11991 1.00024C2.67823 1.14618 2.27202 1.38298 1.9274 1.69541C1.58279 2.00784 1.30741 2.38897 1.11901 2.81427C0.930608 3.23956 0.833349 3.6996 0.833496 4.16475V14.3898C0.833496 16.7814 2.5835 18.9231 4.96683 19.1481C7.7085 19.3981 10.0002 17.2648 10.0002 14.5814V5.62309C10.0002 5.28142 9.71683 4.99809 9.37517 4.99809C9.0335 4.99809 8.75016 5.28142 8.75016 5.62309Z" fill="#333333"/>
</svg>
