<svg width="20" height="22" viewBox="0 0 20 22" fill="none" xmlns="http://www.w3.org/2000/svg">
<path d="M0.859375 10.869V21.269H2.33542H2.94479V17.4787V13.6844L3.2576 13.53C5.20354 12.5834 7.40135 12.4859 9.36354 13.2659C9.59104 13.3553 10.1639 13.6275 10.6351 13.8712C11.1104 14.115 11.6792 14.3872 11.9067 14.4765C13.8485 15.2484 15.896 15.3094 17.8745 14.6553C18.2401 14.5334 18.7195 14.3303 19.2151 14.0784L19.987 13.6925L19.9992 7.46873L20.0073 1.24498L19.5117 1.53342C17.8176 2.50436 16.6354 2.86592 15.1323 2.86592C14.4417 2.86592 13.8689 2.79279 13.227 2.61811C12.5648 2.44342 12.1545 2.27279 11.0089 1.68779C9.94042 1.14748 9.45292 0.952482 8.65667 0.75342C7.42167 0.440607 6.00792 0.424356 4.74448 0.708731C4.27729 0.814356 3.68417 1.00123 3.26573 1.17998L2.94479 1.31404V0.891544V0.469044H2.33542H0.859375V10.869Z" fill="#0F0F0F"/>
</svg>
