<svg width="26" height="26" viewBox="0 0 26 26" fill="none" xmlns="http://www.w3.org/2000/svg">
<path d="M12.6604 0.278877C12.4754 0.373877 12.3904 0.493877 11.8254 1.42388C11.6104 1.77888 11.4054 2.10888 11.3704 2.14388C11.3304 2.18388 10.8654 2.32388 10.3254 2.45388C9.79039 2.57888 9.29539 2.72388 9.22539 2.76888C9.02539 2.89888 8.90039 3.14388 8.90039 3.40388C8.90039 3.67388 8.93539 3.72388 9.74539 4.67388C10.3854 5.42888 10.3454 5.25888 10.2304 6.59888C10.1604 7.43388 10.1804 7.63888 10.3654 7.84388C10.4954 7.98388 10.7454 8.09888 10.9304 8.09888C11.0004 8.09888 11.4954 7.91888 12.0304 7.69888L13.0004 7.29888L13.9704 7.69888C14.5054 7.91888 15.0004 8.09888 15.0704 8.09888C15.2554 8.09888 15.5054 7.98388 15.6354 7.84388C15.8204 7.63888 15.8404 7.43388 15.7704 6.59888C15.6554 5.25888 15.6154 5.42888 16.2554 4.67388C17.0654 3.72388 17.1004 3.67388 17.1004 3.40388C17.1004 3.14388 16.9754 2.89888 16.7754 2.76888C16.7004 2.71888 16.2104 2.57888 15.6854 2.45388C15.1554 2.32388 14.7004 2.20888 14.6704 2.18888C14.6454 2.16888 14.3854 1.76888 14.0954 1.29888C13.8104 0.818877 13.5104 0.393877 13.4304 0.333877C13.2404 0.198877 12.8704 0.168877 12.6604 0.278877Z" fill="#0F0F0F"/>
<path d="M3.9752 3.23883C3.7602 3.37383 3.7152 3.43383 3.1752 4.32383C2.9052 4.76383 2.6802 5.13383 2.6702 5.13883C2.6652 5.14883 2.1952 5.26883 1.6302 5.40883C1.0202 5.55383 0.555195 5.69383 0.485195 5.74883C0.325195 5.87383 0.200195 6.14383 0.200195 6.35883C0.200195 6.58383 0.310195 6.74883 0.965195 7.51883C1.2752 7.87883 1.5502 8.20883 1.5852 8.24883C1.6302 8.30883 1.6252 8.51883 1.5702 9.14883C1.4752 10.3238 1.4752 10.4988 1.6102 10.6988C1.7702 10.9288 2.0252 11.0588 2.2752 11.0338C2.3852 11.0188 2.8902 10.8388 3.4002 10.6288L4.3252 10.2438L5.2852 10.6488C5.8152 10.8688 6.31019 11.0488 6.3852 11.0488C6.6402 11.0488 6.93519 10.8588 7.0502 10.6238C7.1552 10.4088 7.1552 10.4088 7.0702 9.35883L6.9902 8.30883L7.6302 7.54883C7.9852 7.13383 8.30519 6.73383 8.34519 6.65883C8.4502 6.45883 8.43519 6.11883 8.3202 5.96383C8.1252 5.70383 7.9652 5.63883 6.97519 5.39883C6.43519 5.26883 5.9802 5.14383 5.9602 5.12383C5.9402 5.10883 5.6902 4.70883 5.4002 4.23883C5.1102 3.76883 4.8152 3.33883 4.7402 3.28383C4.5502 3.13883 4.1652 3.11883 3.9752 3.23883Z" fill="#0F0F0F"/>
<path d="M21.3706 3.21883C21.1756 3.30383 21.0806 3.43383 20.5056 4.38383C20.0806 5.08383 20.0256 5.14883 19.8606 5.19383C19.7556 5.22383 19.3056 5.33383 18.8556 5.44383C18.0356 5.63883 17.8706 5.71383 17.6806 5.96383C17.5656 6.11883 17.5506 6.45883 17.6556 6.65883C17.6956 6.73383 18.0156 7.13383 18.3706 7.54883L19.0106 8.30883L18.9256 9.35383L18.8406 10.3988L18.9506 10.6238C19.0656 10.8638 19.3606 11.0488 19.6206 11.0488C19.6956 11.0488 20.1906 10.8688 20.7206 10.6488L21.6856 10.2438L22.6056 10.6288C23.1106 10.8388 23.6156 11.0188 23.7256 11.0338C23.9756 11.0588 24.2306 10.9288 24.3906 10.6988C24.5256 10.4988 24.5256 10.3238 24.4306 9.14883C24.3756 8.51883 24.3706 8.30883 24.4156 8.24883C24.4506 8.20883 24.7406 7.86383 25.0656 7.48383C25.3856 7.10383 25.6906 6.71883 25.7306 6.63883C25.9056 6.29883 25.6906 5.76883 25.3256 5.64883C25.2306 5.61883 24.7456 5.49383 24.2506 5.37383C23.7506 5.25383 23.3356 5.14883 23.3306 5.13883C23.3206 5.12883 23.0956 4.76383 22.8256 4.32383C22.5606 3.88383 22.2906 3.46883 22.2306 3.40883C22.0006 3.15383 21.6806 3.08383 21.3706 3.21883Z" fill="#0F0F0F"/>
<path d="M13.2418 10.8729C12.7537 11.0012 12.5878 11.3986 12.5377 12.5815C12.5158 13.0228 12.4908 13.2856 12.4438 13.4734C12.3594 13.8208 12.0965 14.3527 11.8274 14.7095C11.4518 15.2102 10.7133 15.8924 10.1375 16.2742L10.0029 16.3618V20.4988V24.6389L10.3503 24.786C11.2766 25.1772 12.4814 25.4933 13.7425 25.6748C14.672 25.8093 15.2728 25.8437 16.6842 25.8469C17.9922 25.85 18.0361 25.8469 18.2739 25.778C19.1971 25.512 19.873 24.8674 20.139 24.0037C20.1765 23.8848 20.3862 22.7645 20.6053 21.5158C20.9839 19.3409 20.9996 19.2283 20.9996 18.8246C20.9964 18.4585 20.9839 18.3646 20.912 18.1205C20.6679 17.3131 20.1014 16.6841 19.341 16.3806C18.8998 16.2022 18.7996 16.1959 16.9189 16.1959H15.204L15.3135 15.8893C15.567 15.1789 15.6796 14.4873 15.6796 13.6299C15.6796 12.9664 15.6452 12.7443 15.4887 12.3531C15.351 12.0057 15.2008 11.7804 14.9192 11.5019C14.6407 11.2234 14.3809 11.0607 14.0179 10.9355C13.8208 10.8666 13.392 10.8322 13.2418 10.8729Z" fill="#0F0F0F"/>
<path d="M5.8069 15.7449C5.46579 15.8482 5.16537 16.1548 5.05897 16.5085C4.99639 16.7087 4.99639 16.7901 5.00265 20.7644L5.01203 24.8169L5.1153 25.0266C5.24048 25.2832 5.4877 25.5179 5.74118 25.6211C5.91643 25.6931 5.94146 25.6931 6.99919 25.6931C8.05692 25.6931 8.08196 25.6931 8.2572 25.6211C8.51068 25.5179 8.7579 25.2832 8.88308 25.0266L8.98635 24.8169L8.99574 20.7644C9.002 16.7901 9.002 16.7087 8.93941 16.5085C8.82988 16.1455 8.53259 15.8482 8.17897 15.7418C7.95365 15.6761 6.02282 15.6761 5.8069 15.7449Z" fill="#0F0F0F"/>
</svg>
